<?xml version="1.0" standalone="no"?>
<!DOCTYPE svg PUBLIC "-//W3C//DTD SVG 20010904//EN"
 "http://www.w3.org/TR/2001/REC-SVG-20010904/DTD/svg10.dtd">
<svg version="1.0" xmlns="http://www.w3.org/2000/svg"
 width="800.000000pt" height="600.000000pt" viewBox="0 0 800.000000 600.000000"
 preserveAspectRatio="xMidYMid meet">

<g transform="translate(0.000000,600.000000) scale(0.100000,-0.100000)"
fill="#000000" stroke="none">
<path d="M3853 3841 c-17 -11 -35 -27 -40 -36 -8 -14 -15 -14 -55 -4 -54 15
-87 7 -68 -16 10 -12 10 -15 -3 -15 -23 0 -78 -50 -93 -85 -7 -17 -16 -85 -20
-152 l-7 -121 25 5 c19 4 28 15 37 41 6 21 19 48 30 61 l18 24 32 -24 c39 -29
128 -34 123 -7 -2 15 3 14 50 -4 53 -20 189 -30 204 -16 4 5 -1 17 -11 28 -23
25 -20 27 35 31 l45 4 34 -68 c24 -46 40 -67 53 -67 22 0 23 19 4 150 -15 108
-39 163 -89 207 -54 47 -114 66 -196 61 -52 -3 -71 0 -73 9 -2 10 -11 8 -35
-6z"/>
<path d="M3731 3401 c-22 -14 -5 -41 27 -41 15 0 33 -5 39 -11 8 -8 17 -8 31
0 11 6 30 11 41 11 26 0 36 17 21 35 -14 17 -135 21 -159 6z"/>
<path d="M3953 3403 c-7 -3 -13 -13 -13 -24 0 -14 7 -19 28 -19 15 0 32 -4 38
-10 6 -6 22 -6 44 2 19 6 41 13 48 14 8 2 12 12 10 21 -3 15 -15 18 -73 19
-39 1 -76 -1 -82 -3z"/>
<path d="M3772 3271 c-13 -4 -33 -23 -45 -46 -29 -52 -51 -55 -77 -13 -11 18
-21 36 -22 39 -2 3 -18 9 -36 12 -26 5 -34 3 -39 -11 -4 -9 -17 -30 -30 -46
-33 -40 -26 -65 23 -90 58 -30 72 -43 93 -91 24 -54 33 -60 104 -57 51 2 66
-2 107 -28 58 -37 83 -37 139 0 48 33 62 36 89 19 32 -20 87 12 116 69 20 39
37 56 81 81 64 36 67 48 30 120 l-24 48 -38 -10 c-30 -8 -42 -18 -56 -48 -27
-56 -46 -52 -87 17 -19 33 -49 44 -89 34 -28 -6 -41 -30 -17 -30 34 0 49 -79
22 -115 -12 -16 -29 -20 -93 -23 -68 -3 -81 -1 -106 18 -23 18 -28 29 -25 58
2 28 10 41 37 59 22 15 29 24 20 27 -33 10 -55 12 -77 7z"/>
<path d="M3910 3189 c0 -5 5 -7 10 -4 6 3 10 8 10 11 0 2 -4 4 -10 4 -5 0 -10
-5 -10 -11z"/>
<path d="M4014 2875 c-4 -9 -2 -21 4 -27 15 -15 44 -1 40 19 -4 23 -36 29 -44
8z"/>
<path d="M4116 2864 c-31 -30 -9 -84 34 -84 17 0 50 34 50 52 0 13 -39 48 -54
48 -8 0 -22 -7 -30 -16z"/>
<path d="M3864 2835 c-16 -24 -16 -27 1 -45 31 -34 75 -19 75 25 0 48 -49 60
-76 20z"/>
<path d="M3422 2758 c-6 -23 -9 -44 -6 -47 9 -10 25 17 31 52 8 52 -12 47 -25
-5z"/>
<path d="M3477 2783 c-12 -20 -19 -83 -9 -83 15 0 34 72 23 83 -5 5 -11 5 -14
0z"/>
<path d="M4340 2786 c0 -16 33 -76 41 -76 6 0 8 7 5 16 -3 9 -9 27 -12 40 -3
13 -12 24 -20 24 -8 0 -14 -2 -14 -4z"/>
<path d="M3520 2755 c-14 -38 -17 -63 -7 -67 13 -5 38 75 27 86 -6 6 -13 -2
-20 -19z"/>
<path d="M4300 2774 c0 -21 25 -84 33 -84 9 0 1 65 -9 82 -6 10 -24 11 -24 2z"/>
<path d="M4257 2764 c-6 -6 11 -64 24 -78 17 -18 20 2 8 43 -12 39 -19 48 -32
35z"/>
<path d="M3755 2730 c4 -6 11 -8 16 -5 14 9 11 15 -7 15 -8 0 -12 -5 -9 -10z"/>
<path d="M4095 2710 c-8 -13 5 -13 25 0 13 8 13 10 -2 10 -9 0 -20 -4 -23 -10z"/>
<path d="M3913 2694 c-8 -21 13 -42 28 -27 13 13 5 43 -11 43 -6 0 -13 -7 -17
-16z"/>
<path d="M3763 2588 c21 -88 35 -136 45 -155 7 -12 12 -31 12 -42 0 -25 2 -25
42 -5 37 19 116 11 125 -13 6 -16 -15 -35 -29 -27 -5 3 -3 -6 4 -21 25 -55
108 -35 108 26 0 23 -7 34 -36 51 -40 24 -40 28 2 134 29 73 29 74 4 74 -20 0
-47 -42 -69 -112 -20 -61 -64 -84 -65 -33 -1 35 -32 47 -52 21 -10 -14 -15 -6
-33 54 -18 57 -25 70 -42 70 -17 0 -20 -5 -16 -22z"/>
<path d="M4312 2566 c-19 -6 -38 -19 -42 -27 -14 -24 11 -64 44 -67 54 -7 88
56 49 90 -15 13 -24 13 -51 4z"/>
<path d="M3512 2548 c3 -7 15 -15 27 -16 16 -3 22 1 19 10 -3 7 -15 15 -27 16
-16 3 -22 -1 -19 -10z"/>
<path d="M3625 2353 c-15 -275 -98 -451 -243 -516 -143 -65 -283 -77 -779 -70
l-363 6 0 -27 0 -26 199 0 c164 0 201 3 211 15 16 19 51 19 76 0 38 -29 412
-12 559 25 97 25 185 72 231 123 79 87 146 288 159 476 7 93 6 100 -13 110
-11 6 -23 11 -25 11 -2 0 -8 -57 -12 -127z"/>
<path d="M4157 2469 c-11 -7 -16 -17 -12 -29 3 -10 1 -21 -5 -25 -15 -9 -12
-42 5 -49 10 -3 15 -19 15 -46 0 -56 37 -264 55 -306 43 -105 142 -187 273
-228 134 -42 233 -50 576 -51 l319 0 8 24 9 23 -262 -5 c-301 -5 -468 4 -583
33 -195 49 -289 137 -324 300 -7 30 -16 111 -21 179 -11 137 -19 191 -29 191
-3 0 -14 -5 -24 -11z"/>
<path d="M3720 2390 c-24 -24 -24 -30 -7 -54 9 -12 23 -17 42 -14 25 2 31 8
33 33 3 19 -2 33 -14 42 -24 17 -30 17 -54 -7z"/>
<path d="M3516 2387 c-22 -16 -18 -55 7 -71 39 -24 79 44 41 71 -10 7 -21 13
-24 13 -3 0 -14 -6 -24 -13z"/>
<path d="M4310 2352 c-37 -13 -40 -58 -5 -74 19 -8 28 -8 40 2 34 28 6 86 -35
72z"/>
</g>
</svg>
